<?xml version="1.0" standalone="no"?>
<!DOCTYPE svg PUBLIC "-//W3C//DTD SVG 20010904//EN"
 "http://www.w3.org/TR/2001/REC-SVG-20010904/DTD/svg10.dtd">
<svg version="1.0" xmlns="http://www.w3.org/2000/svg"
 width="80.000000pt" height="80.000000pt" viewBox="0 0 80.000000 80.000000"
 preserveAspectRatio="xMidYMid meet">
<metadata>
Created by potrace 1.11, written by Peter Selinger 2001-2013
</metadata>
<g transform="translate(0.000000,80.000000) scale(0.100000,-0.100000)"
fill="#000000" stroke="none">
<path d="M340 787 c0 -22 -38 -28 -50 -9 -8 15 -9 14 -10 -5 0 -20 5 -23 40
-23 33 0 40 3 40 19 0 11 -4 23 -10 26 -5 3 -10 0 -10 -8z"/>
<path d="M390 785 c0 -10 11 -15 33 -16 l32 -2 -35 -7 c-27 -5 -31 -8 -18 -14
25 -11 52 -3 56 17 3 13 -3 17 -25 17 -22 0 -25 2 -13 10 12 8 11 10 -7 10
-14 0 -23 -6 -23 -15z"/>
<path d="M108 757 l32 -33 -30 -29 -30 -29 -28 27 c-37 35 -42 34 -42 -9 0
-43 45 -94 83 -94 43 0 51 -23 25 -72 -32 -61 -32 -185 0 -245 22 -41 22 -42
3 -53 -11 -5 -27 -10 -35 -10 -23 0 -73 -51 -80 -82 -9 -38 11 -45 43 -14 l27
26 29 -30 29 -30 -27 -28 c-33 -35 -34 -42 -2 -42 55 0 79 23 114 114 8 20 15
25 24 18 6 -5 32 -16 57 -23 25 -7 57 -23 71 -36 l25 -23 24 25 c13 14 31 25
39 25 9 0 36 9 60 21 50 22 54 20 71 -43 13 -44 52 -78 91 -78 35 0 36 7 4 40
l-25 26 30 29 30 29 28 -27 c36 -35 42 -34 42 7 0 43 -35 81 -88 96 -23 6 -43
14 -46 19 -3 4 4 32 15 62 26 69 23 165 -8 227 l-21 43 29 14 c15 8 35 15 43
15 8 0 28 12 45 26 24 19 31 34 31 60 0 41 -6 42 -40 9 l-26 -25 -29 30 -29
30 27 28 c34 35 34 42 2 42 -53 0 -105 -47 -105 -93 0 -7 -7 -22 -15 -34 l-15
-21 -62 25 c-51 21 -73 24 -123 20 -73 -6 -149 -37 -193 -80 -25 -24 -35 -28
-44 -19 -7 7 -23 12 -36 12 -30 0 -82 51 -82 81 0 22 1 22 30 -6 l30 -29 37
37 37 37 -29 30 c-28 29 -28 30 -6 30 30 0 81 -52 81 -83 0 -14 7 -30 15 -37
9 -8 15 -9 15 -2 0 6 -4 14 -10 17 -5 3 -10 18 -10 31 0 40 -51 84 -96 84
l-38 0 32 -33z m567 -7 l-29 -30 34 -35 c40 -41 46 -42 77 -13 l23 21 0 -22
c0 -27 -46 -71 -74 -71 -12 0 -32 -7 -45 -16 -22 -16 -24 -15 -57 17 -31 30
-33 35 -20 54 7 11 16 34 20 52 9 41 43 70 85 72 9 1 4 -10 -14 -29z m-350
-199 c-50 -22 -93 -71 -99 -114 -3 -18 -7 -43 -9 -57 -3 -16 -5 -10 -6 14 -2
58 33 121 82 151 23 14 49 25 57 25 8 0 -3 -9 -25 -19z m181 -17 c33 -24 65
-80 63 -111 -1 -13 -3 -11 -9 7 -6 20 -8 14 -9 -27 -1 -28 -5 -54 -9 -57 -5
-3 -20 8 -34 24 l-26 30 34 30 c39 34 40 37 16 65 -30 36 -95 74 -78 46 3 -5
-1 -11 -9 -15 -9 -3 -15 0 -15 9 0 8 5 15 11 15 5 0 7 4 4 10 -9 15 26 0 61
-26z m-141 5 c11 -17 -1 -21 -15 -4 -8 9 -8 15 -2 15 6 0 14 -5 17 -11z m-17
-72 c-5 -23 -12 -45 -17 -50 -4 -4 -23 9 -42 29 l-34 35 33 30 c32 28 35 29
52 14 15 -13 16 -23 8 -58z m157 33 l29 -30 -34 -35 c-18 -19 -36 -32 -40 -30
-14 8 -20 97 -9 111 16 20 22 18 54 -16z m-220 -70 l29 -30 -32 -33 c-27 -27
-34 -30 -42 -17 -17 27 -10 110 9 110 4 0 20 -14 36 -30z m40 -91 c-7 -33 -15
-62 -17 -65 -3 -2 -15 7 -28 21 l-24 25 39 40 c22 22 40 40 41 40 1 0 -4 -27
-11 -61z m190 -32 c-29 -44 -43 -41 -50 13 -9 68 1 79 37 42 29 -29 30 -30 13
-55z m51 38 c-7 -29 -51 -82 -80 -96 -15 -7 -13 -4 6 11 34 27 68 81 69 111 0
13 3 18 6 11 3 -7 2 -24 -1 -37z m-287 -69 c28 -31 31 -36 11 -24 -27 16 -70
74 -70 92 0 6 6 2 12 -9 6 -11 27 -38 47 -59z m-82 -171 c-23 -62 -33 -73 -77
-81 l-34 -7 34 31 35 31 -34 35 c-41 42 -47 43 -78 14 -22 -21 -23 -21 -23 -2
0 33 25 57 76 74 l49 16 35 -31 36 -30 -19 -50z m500 95 c48 -14 69 -33 79
-75 l7 -30 -32 29 -31 30 -35 -34 c-41 -40 -42 -46 -13 -77 21 -22 21 -23 2
-23 -30 0 -62 35 -74 80 -6 21 -15 42 -21 46 -13 8 51 76 66 70 5 -3 29 -10
52 -16z"/>
<path d="M494 775 c-11 -27 4 -47 33 -43 37 4 45 42 11 52 -33 9 -38 8 -44 -9z
m47 -13 c-7 -2 -18 1 -23 6 -8 8 -4 9 13 5 13 -4 18 -8 10 -11z m-10 -20 c-7
-2 -18 1 -23 6 -8 8 -4 9 13 5 13 -4 18 -8 10 -11z"/>
<path d="M237 750 c3 -11 10 -23 16 -27 7 -4 8 0 4 11 -4 10 -7 22 -7 27 0 5
-4 9 -9 9 -5 0 -7 -9 -4 -20z"/>
</g>
</svg>
