<?xml version="1.0" standalone="no"?>
<!DOCTYPE svg PUBLIC "-//W3C//DTD SVG 20010904//EN"
 "http://www.w3.org/TR/2001/REC-SVG-20010904/DTD/svg10.dtd">
<svg version="1.0" xmlns="http://www.w3.org/2000/svg"
 width="300.000000pt" height="300.000000pt" viewBox="0 0 300.000000 300.000000"
 preserveAspectRatio="xMidYMid meet">
<metadata>
Created by potrace 1.11, written by Peter Selinger 2001-2013
</metadata>
<g transform="translate(0.000000,300.000000) scale(0.100000,-0.100000)"
fill="#000000" stroke="none">
<path d="M1114 2202 c-362 -567 -380 -597 -355 -599 53 -5 137 -26 166 -41
171 -86 211 -288 81 -411 l-36 -35 0 -323 0 -323 183 0 c101 0 186 -2 189 -5
3 -3 2 -24 -2 -46 -8 -41 -7 -42 74 -134 44 -52 84 -94 87 -94 3 -1 42 41 87
92 79 93 80 94 72 135 -4 23 -5 44 -2 47 3 3 88 5 189 5 l183 0 0 323 0 323
-36 35 c-51 48 -74 102 -74 174 0 132 92 234 240 264 30 6 67 12 81 14 25 2 7
32 -355 599 -209 329 -383 597 -386 597 -3 0 -177 -268 -386 -597z m426 27 l0
-89 109 0 c104 0 111 -1 142 -27 54 -46 59 -71 59 -298 l0 -205 -350 0 -350 0
0 210 c0 188 2 215 19 248 31 60 62 72 185 72 l106 0 0 89 0 88 40 0 40 0 0
-88z m290 -701 c-11 -29 -34 -73 -51 -96 l-31 -42 -255 0 c-287 0 -262 -7
-307 81 -14 25 -28 63 -31 85 l-8 39 23 -28 c36 -45 77 -61 160 -61 63 -1 82
3 121 25 l45 25 39 -20 c85 -44 221 -27 281 35 36 38 40 26 14 -43z m-656
-105 c13 -27 44 -67 68 -90 40 -39 132 -93 157 -93 6 0 11 -1 12 -2 0 -2 6
-37 12 -78 l12 -75 59 -3 c40 -2 62 1 67 10 4 7 11 41 15 76 6 56 9 65 33 73
97 36 177 103 217 182 13 26 31 47 39 47 13 0 15 -48 15 -354 l0 -354 -47 -7
c-58 -8 -125 -36 -171 -71 -18 -14 -35 -24 -37 -23 -3 3 -65 370 -65 384 0 3
-27 5 -60 5 -33 0 -60 -2 -60 -5 0 -14 -62 -381 -65 -384 -2 -1 -19 9 -37 23
-46 35 -113 63 -170 71 l-48 7 0 354 c0 306 2 354 15 354 8 0 26 -21 39 -47z
m526 -69 c0 -3 -21 -15 -47 -27 -69 -31 -237 -31 -305 0 -27 12 -48 24 -48 27
0 3 90 6 200 6 110 0 200 -3 200 -6z"/>
<path d="M768 1454 c-5 -4 -8 -62 -8 -130 0 -119 1 -122 23 -128 40 -10 95 12
123 49 46 61 32 149 -31 191 -28 18 -96 30 -107 18z"/>
<path d="M2145 1446 c-65 -29 -92 -94 -69 -162 21 -62 86 -102 143 -87 21 5
21 9 19 132 l-3 126 -30 2 c-16 2 -43 -3 -60 -11z"/>
<path d="M308 940 l-298 -465 297 -3 c163 -1 298 -1 300 1 2 2 2 213 1 468
l-3 464 -297 -465z"/>
<path d="M2390 937 l0 -467 301 0 c237 0 299 3 293 13 -31 51 -578 904 -585
912 -5 5 -9 -178 -9 -458z"/>
<path d="M793 1053 l-33 -4 0 -290 0 -289 40 0 40 0 0 295 c0 162 -3 294 -7
293 -5 0 -23 -3 -40 -5z"/>
<path d="M2160 766 l0 -296 40 0 40 0 0 290 0 290 -24 0 c-13 0 -31 3 -40 6
-14 6 -16 -24 -16 -290z"/>
</g>
</svg>
